<mxfile host="app.diagrams.net" modified="2024-03-26T01:18:44.237Z" agent="Mozilla/5.0 (Windows NT 10.0; Win64; x64) AppleWebKit/537.36 (KHTML, like Gecko) Chrome/122.0.0.0 Safari/537.36 Edg/122.0.0.0" etag="cYSx8f1KqoaA0ajvFmOp" version="24.1.0" type="device">
  <diagram name="locker.h" id="1IDqv2DnIN7-9uhBueqo">
    <mxGraphModel dx="1198" dy="727" grid="0" gridSize="10" guides="1" tooltips="1" connect="1" arrows="1" fold="1" page="1" pageScale="1" pageWidth="827" pageHeight="1169" background="#ffffff" math="0" shadow="0">
      <root>
        <mxCell id="0" />
        <mxCell id="1" parent="0" />
        <mxCell id="P7G1AZKXptafGZpG62cd-7" value="" style="group" vertex="1" connectable="0" parent="1">
          <mxGeometry x="414" y="40" width="330" height="239.16666666666666" as="geometry" />
        </mxCell>
        <mxCell id="P7G1AZKXptafGZpG62cd-8" value="&lt;font style=&quot;font-size: 20px;&quot;&gt;locker&lt;/font&gt;" style="swimlane;fontStyle=1;align=center;verticalAlign=top;childLayout=stackLayout;horizontal=1;startSize=31;horizontalStack=0;resizeParent=1;resizeParentMax=0;resizeLast=0;collapsible=1;marginBottom=0;whiteSpace=wrap;html=1;" vertex="1" parent="P7G1AZKXptafGZpG62cd-7">
          <mxGeometry y="39.166666666666664" width="280" height="205.00444444444446" as="geometry" />
        </mxCell>
        <mxCell id="P7G1AZKXptafGZpG62cd-9" value="&lt;font style=&quot;font-size: 20px;&quot;&gt;- m_mutex: pthread_mutex_t&lt;/font&gt;" style="text;strokeColor=none;fillColor=none;align=left;verticalAlign=top;spacingLeft=4;spacingRight=4;overflow=hidden;rotatable=0;points=[[0,0.5],[1,0.5]];portConstraint=eastwest;whiteSpace=wrap;html=1;" vertex="1" parent="P7G1AZKXptafGZpG62cd-8">
          <mxGeometry y="31" width="280" height="34" as="geometry" />
        </mxCell>
        <mxCell id="P7G1AZKXptafGZpG62cd-10" value="" style="line;strokeWidth=1;fillColor=none;align=left;verticalAlign=middle;spacingTop=-1;spacingLeft=3;spacingRight=3;rotatable=0;labelPosition=right;points=[];portConstraint=eastwest;strokeColor=inherit;" vertex="1" parent="P7G1AZKXptafGZpG62cd-8">
          <mxGeometry y="65" width="280" height="10.444444444444445" as="geometry" />
        </mxCell>
        <mxCell id="P7G1AZKXptafGZpG62cd-11" value="&lt;font style=&quot;font-size: 20px;&quot;&gt;+ locker()&lt;/font&gt;&lt;div&gt;&lt;font size=&quot;3&quot;&gt;+ ~locker()&lt;/font&gt;&lt;/div&gt;&lt;div&gt;&lt;font size=&quot;3&quot;&gt;+ lock(): bool&lt;/font&gt;&lt;/div&gt;&lt;div&gt;&lt;font size=&quot;3&quot;&gt;+ unlock(): bool&lt;/font&gt;&lt;/div&gt;&lt;div&gt;&lt;font size=&quot;3&quot;&gt;+ get(): pthread_mutex_t *&lt;/font&gt;&lt;/div&gt;" style="text;strokeColor=none;fillColor=none;align=left;verticalAlign=top;spacingLeft=4;spacingRight=4;overflow=hidden;rotatable=0;points=[[0,0.5],[1,0.5]];portConstraint=eastwest;whiteSpace=wrap;html=1;" vertex="1" parent="P7G1AZKXptafGZpG62cd-8">
          <mxGeometry y="75.44444444444444" width="280" height="129.56" as="geometry" />
        </mxCell>
        <mxCell id="P7G1AZKXptafGZpG62cd-12" value="&lt;font style=&quot;font-size: 14px;&quot;&gt;// 使用RAII机制实现互斥锁机制，以实现多线程同步&lt;/font&gt;" style="text;html=1;align=center;verticalAlign=middle;resizable=0;points=[];autosize=1;strokeColor=none;fillColor=none;" vertex="1" parent="P7G1AZKXptafGZpG62cd-7">
          <mxGeometry x="-10" width="340" height="30" as="geometry" />
        </mxCell>
        <mxCell id="P7G1AZKXptafGZpG62cd-13" value="" style="group" vertex="1" connectable="0" parent="1">
          <mxGeometry x="40" y="320" width="570" height="323.3333333333333" as="geometry" />
        </mxCell>
        <mxCell id="P7G1AZKXptafGZpG62cd-14" value="&lt;font style=&quot;font-size: 20px;&quot;&gt;cond&lt;/font&gt;" style="swimlane;fontStyle=1;align=center;verticalAlign=top;childLayout=stackLayout;horizontal=1;startSize=37;horizontalStack=0;resizeParent=1;resizeParentMax=0;resizeLast=0;collapsible=1;marginBottom=0;whiteSpace=wrap;html=1;" vertex="1" parent="P7G1AZKXptafGZpG62cd-13">
          <mxGeometry y="43.333333333333336" width="570" height="259.99555555555554" as="geometry" />
        </mxCell>
        <mxCell id="P7G1AZKXptafGZpG62cd-15" value="&lt;font style=&quot;font-size: 20px;&quot;&gt;- m_cond: pthread_cond_t&lt;/font&gt;" style="text;strokeColor=none;fillColor=none;align=left;verticalAlign=top;spacingLeft=4;spacingRight=4;overflow=hidden;rotatable=0;points=[[0,0.5],[1,0.5]];portConstraint=eastwest;whiteSpace=wrap;html=1;" vertex="1" parent="P7G1AZKXptafGZpG62cd-14">
          <mxGeometry y="37" width="570" height="33.62" as="geometry" />
        </mxCell>
        <mxCell id="P7G1AZKXptafGZpG62cd-16" value="" style="line;strokeWidth=1;fillColor=none;align=left;verticalAlign=middle;spacingTop=-1;spacingLeft=3;spacingRight=3;rotatable=0;labelPosition=right;points=[];portConstraint=eastwest;strokeColor=inherit;" vertex="1" parent="P7G1AZKXptafGZpG62cd-14">
          <mxGeometry y="70.62" width="570" height="11.555555555555555" as="geometry" />
        </mxCell>
        <mxCell id="P7G1AZKXptafGZpG62cd-17" value="&lt;font style=&quot;font-size: 20px;&quot;&gt;+ cond()&lt;/font&gt;&lt;div&gt;&lt;font size=&quot;3&quot; style=&quot;&quot;&gt;+ ~cond()&lt;/font&gt;&lt;/div&gt;&lt;div&gt;&lt;font size=&quot;3&quot;&gt;+ wait(&lt;span style=&quot;background-color: initial;&quot;&gt;pthread_mutex_t *m_mutex&lt;/span&gt;&lt;span style=&quot;background-color: initial;&quot;&gt;): bool&lt;/span&gt;&lt;/font&gt;&lt;/div&gt;&lt;div&gt;&lt;font size=&quot;3&quot;&gt;+ timewait(&lt;span style=&quot;background-color: initial;&quot;&gt;pthread_mutex_t *m_mutex, struct timespec t&lt;/span&gt;&lt;span style=&quot;background-color: initial;&quot;&gt;): bool&lt;/span&gt;&lt;/font&gt;&lt;/div&gt;&lt;div&gt;&lt;font size=&quot;3&quot;&gt;+ signal(): bool&lt;/font&gt;&lt;/div&gt;&lt;div&gt;&lt;font size=&quot;3&quot;&gt;+ broadcast(): bool&lt;/font&gt;&lt;/div&gt;" style="text;strokeColor=none;fillColor=none;align=left;verticalAlign=top;spacingLeft=4;spacingRight=4;overflow=hidden;rotatable=0;points=[[0,0.5],[1,0.5]];portConstraint=eastwest;whiteSpace=wrap;html=1;" vertex="1" parent="P7G1AZKXptafGZpG62cd-14">
          <mxGeometry y="82.17555555555556" width="570" height="177.82" as="geometry" />
        </mxCell>
        <mxCell id="P7G1AZKXptafGZpG62cd-18" value="&lt;font style=&quot;font-size: 14px;&quot;&gt;// 使用RAII机制实现条件变量锁机制，实现多线程同步&lt;/font&gt;" style="text;html=1;align=center;verticalAlign=middle;resizable=0;points=[];autosize=1;strokeColor=none;fillColor=none;" vertex="1" parent="P7G1AZKXptafGZpG62cd-13">
          <mxGeometry x="-20" width="360" height="30" as="geometry" />
        </mxCell>
        <mxCell id="P7G1AZKXptafGZpG62cd-20" value="" style="group" vertex="1" connectable="0" parent="1">
          <mxGeometry x="30" y="40" width="380" height="240" as="geometry" />
        </mxCell>
        <mxCell id="P7G1AZKXptafGZpG62cd-5" value="&lt;font style=&quot;font-size: 14px;&quot;&gt;// 使用RAII机制实现信号量的创建和销毁，并实现PV操作&lt;/font&gt;" style="text;html=1;align=center;verticalAlign=middle;resizable=0;points=[];autosize=1;strokeColor=none;fillColor=none;" vertex="1" parent="P7G1AZKXptafGZpG62cd-20">
          <mxGeometry width="380" height="30" as="geometry" />
        </mxCell>
        <mxCell id="P7G1AZKXptafGZpG62cd-1" value="&lt;font style=&quot;font-size: 20px;&quot;&gt;sem&lt;/font&gt;" style="swimlane;fontStyle=1;align=center;verticalAlign=top;childLayout=stackLayout;horizontal=1;startSize=30;horizontalStack=0;resizeParent=1;resizeParentMax=0;resizeLast=0;collapsible=1;marginBottom=0;whiteSpace=wrap;html=1;" vertex="1" parent="P7G1AZKXptafGZpG62cd-20">
          <mxGeometry x="10" y="40" width="240" height="204" as="geometry" />
        </mxCell>
        <mxCell id="P7G1AZKXptafGZpG62cd-2" value="&lt;font style=&quot;font-size: 20px;&quot;&gt;- m_sem: sem_t&lt;/font&gt;" style="text;strokeColor=none;fillColor=none;align=left;verticalAlign=top;spacingLeft=4;spacingRight=4;overflow=hidden;rotatable=0;points=[[0,0.5],[1,0.5]];portConstraint=eastwest;whiteSpace=wrap;html=1;" vertex="1" parent="P7G1AZKXptafGZpG62cd-1">
          <mxGeometry y="30" width="240" height="26" as="geometry" />
        </mxCell>
        <mxCell id="P7G1AZKXptafGZpG62cd-3" value="" style="line;strokeWidth=1;fillColor=none;align=left;verticalAlign=middle;spacingTop=-1;spacingLeft=3;spacingRight=3;rotatable=0;labelPosition=right;points=[];portConstraint=eastwest;strokeColor=inherit;" vertex="1" parent="P7G1AZKXptafGZpG62cd-1">
          <mxGeometry y="56" width="240" height="8" as="geometry" />
        </mxCell>
        <mxCell id="P7G1AZKXptafGZpG62cd-4" value="&lt;font style=&quot;font-size: 20px;&quot;&gt;+ sem()&lt;/font&gt;&lt;div&gt;&lt;font size=&quot;3&quot;&gt;+ sem(int num)&lt;/font&gt;&lt;/div&gt;&lt;div&gt;&lt;font size=&quot;3&quot;&gt;+ ~sem()&lt;/font&gt;&lt;/div&gt;&lt;div&gt;&lt;font size=&quot;3&quot;&gt;+ wait(): bool&lt;/font&gt;&lt;/div&gt;&lt;div&gt;&lt;font size=&quot;3&quot;&gt;+ post(): bool&lt;/font&gt;&lt;/div&gt;" style="text;strokeColor=none;fillColor=none;align=left;verticalAlign=top;spacingLeft=4;spacingRight=4;overflow=hidden;rotatable=0;points=[[0,0.5],[1,0.5]];portConstraint=eastwest;whiteSpace=wrap;html=1;" vertex="1" parent="P7G1AZKXptafGZpG62cd-1">
          <mxGeometry y="64" width="240" height="140" as="geometry" />
        </mxCell>
      </root>
    </mxGraphModel>
  </diagram>
</mxfile>
